<?xml version="1.0" encoding="utf-8"?>
<!-- Generator: Adobe Illustrator 22.0.1, SVG Export Plug-In . SVG Version: 6.00 Build 0)  -->
<svg version="1.1" id="Layer_1" xmlns="http://www.w3.org/2000/svg" xmlns:xlink="http://www.w3.org/1999/xlink" x="0px" y="0px"
	 viewBox="0 0 500 500" style="enable-background:new 0 0 500 500;" xml:space="preserve">
<style type="text/css">
	.st0{fill:#FF0000;}
	.st1{fill:#FFFFFF;}
</style>
<rect class="st0" width="500" height="500"/>
<g>
	<path class="st1" d="M75.6,68.1v3.2H31.5v40.9h50.2v3.3H28.2V27.7h53.5v3.2H31.5v37.2H75.6z"/>
	<path class="st1" d="M101.9,27.7v84.6H147v3.3H98.6V27.7H101.9z"/>
	<path class="st1" d="M219.7,115.6l-9.9-26.3h-42.9l-9.8,26.3h-3.6l32.8-87.9h4l32.9,87.9H219.7z M186.5,36.5l-18.4,49.5h40.5
		l-18.4-49.5l-1.7-5h-0.4L186.5,36.5z"/>
	<path class="st1" d="M282.7,108.3c5-3.5,7.4-8.1,7.4-13.7s-2-10-6-13.3s-11-6.3-21.1-9.1c-5.3-1.4-9.7-2.8-13.1-4.2
		c-3.4-1.4-6.4-3.1-8.9-4.9s-4.3-4-5.4-6.5c-1.1-2.4-1.6-5.3-1.6-8.6c0-6.5,2.7-11.8,8.1-15.7c5.4-3.9,12.4-5.9,21-5.9
		s15.7,2.4,21.1,7.2c5.4,4.8,8,10.9,7.8,18.4l-0.1,0.4h-2.8c0-6.7-2.4-12.1-7.2-16.4c-4.8-4.3-11.1-6.4-18.9-6.4
		c-7.8,0-14,1.7-18.7,5.2c-4.7,3.5-7.1,7.8-7.1,12.9c0,5.1,2,9.3,5.9,12.6c3.9,3.2,10.9,6.1,20.8,8.7c5.1,1.4,9.4,2.8,12.9,4.3
		c3.5,1.5,6.6,3.2,9.2,5.2c5,3.8,7.4,9.2,7.4,16c0,6.8-2.8,12.2-8.4,16.3c-5.6,4-12.7,6.1-21.4,6.1c-9.2,0-16.8-2-22.7-6.1
		c-3-2.1-5.3-4.8-6.9-8.1c-1.6-3.4-2.4-7.2-2.2-11.5l0.1-0.3h2.8c0,3.9,0.8,7.3,2.3,10.3c1.6,3,3.7,5.3,6.4,7.1
		c5.5,3.6,12.3,5.4,20.4,5.4l-0.1-0.1C271.3,113.6,277.7,111.9,282.7,108.3z"/>
	<path class="st1" d="M369.7,27.7v3.2h-32v84.7h-3.2V30.9h-32v-3.2H369.7z"/>
	<path class="st1" d="M390.9,27.7v87.9h-3.3V27.7H390.9z"/>
	<path class="st1" d="M473.3,88.8h2.8l0.1,0.3c0.1,8.9-2.5,15.8-8,20.6c-5.5,4.8-13,7.2-22.5,7.2c-9.5,0-17.2-3.5-23-10.6
		c-5.8-7.1-8.7-16.4-8.7-28V65.2c0-11.6,2.9-21,8.7-28c5.8-7.1,13.4-10.6,22.9-10.6c9.5,0,17,2.4,22.5,7.2c5.5,4.8,8.2,11.7,8,20.5
		l-0.1,0.3h-2.8c0-7.9-2.4-14-7.3-18.3c-4.9-4.3-11.6-6.5-20.2-6.5s-15.5,3.2-20.7,9.7c-5.2,6.5-7.8,15-7.8,25.6v13.3
		c0,10.7,2.6,19.3,7.8,25.7c5.2,6.4,12.1,9.7,20.8,9.7c8.7,0,15.4-2.1,20.2-6.3C470.9,103.2,473.3,97,473.3,88.8z"/>
	<path class="st1" d="M60.1,236.4c-10.1,0-18.3-3.6-24.6-10.7c-6.3-7.1-9.4-16.5-9.4-28v-14.4c0-11.1,3-20.1,9.1-27
		c6.1-6.9,13.9-10.4,23.4-10.4s17,2.4,22.5,7.1c5.5,4.7,8.3,11,8.4,18.7l-0.1,0.3h-2.8c-0.3-7-2.9-12.6-7.6-16.7
		c-4.8-4.1-11.5-6.2-20.2-6.2c-8.7,0-15.8,3.1-21.2,9.4c-5.4,6.3-8.1,14.5-8.1,24.6v14.5c0,10.6,2.8,19.1,8.4,25.6
		c5.6,6.5,13,9.8,22.2,9.8c6.2,0,11.7-0.9,16.7-2.7c4.9-1.8,8.3-3.9,10.1-6.2v-25.6H60v-3.4h30.1l-0.1,30.5
		c-2.1,2.8-5.8,5.3-11.2,7.4C73.5,235.3,67.2,236.4,60.1,236.4z"/>
	<path class="st1" d="M116.4,147.1v84.6h45.1v3.3h-48.4v-87.9H116.4z"/>
	<path class="st1" d="M234.2,235l-9.9-26.3h-42.9l-9.8,26.3H168l32.8-87.9h4l32.9,87.9H234.2z M201,156l-18.4,49.5h40.5L204.7,156
		l-1.7-5h-0.4L201,156z"/>
	<path class="st1" d="M297.2,227.7c5-3.5,7.4-8.1,7.4-13.7s-2-10-6-13.3s-11-6.3-21.1-9.1c-5.3-1.4-9.7-2.8-13.1-4.2
		s-6.4-3.1-8.9-4.9s-4.3-4-5.4-6.5c-1.1-2.4-1.6-5.3-1.6-8.6c0-6.5,2.7-11.8,8.1-15.7c5.4-3.9,12.4-5.9,21-5.9s15.7,2.4,21.1,7.2
		c5.4,4.8,8,10.9,7.8,18.4l-0.1,0.4h-2.8c0-6.7-2.4-12.1-7.2-16.4c-4.8-4.3-11.1-6.4-18.9-6.4c-7.8,0-14,1.7-18.7,5.2
		s-7.1,7.8-7.1,12.9c0,5.1,2,9.3,5.9,12.6c3.9,3.2,10.9,6.1,20.8,8.7c5.1,1.4,9.4,2.8,12.9,4.3c3.5,1.5,6.6,3.2,9.2,5.2
		c5,3.8,7.4,9.2,7.4,16c0,6.8-2.8,12.2-8.4,16.3c-5.6,4-12.7,6.1-21.4,6.1c-9.2,0-16.8-2-22.7-6.1c-3-2.1-5.3-4.8-6.9-8.1
		c-1.6-3.4-2.4-7.2-2.2-11.5l0.1-0.3h2.8c0,3.9,0.8,7.3,2.3,10.3c1.6,3,3.7,5.3,6.4,7.1c5.5,3.6,12.3,5.4,20.4,5.4l-0.1-0.1
		C285.8,233,292.2,231.3,297.2,227.7z"/>
	<path class="st1" d="M371,227.7c5-3.5,7.4-8.1,7.4-13.7s-2-10-6-13.3c-4-3.3-11-6.3-21.1-9.1c-5.3-1.4-9.7-2.8-13.1-4.2
		c-3.4-1.4-6.4-3.1-8.9-4.9s-4.3-4-5.4-6.5c-1.1-2.4-1.6-5.3-1.6-8.6c0-6.5,2.7-11.8,8.1-15.7c5.4-3.9,12.4-5.9,21-5.9
		c8.6,0,15.7,2.4,21.1,7.2c5.4,4.8,8,10.9,7.8,18.4l-0.1,0.4h-2.8c0-6.7-2.4-12.1-7.2-16.4c-4.8-4.3-11.1-6.4-18.9-6.4
		c-7.8,0-14,1.7-18.7,5.2c-4.7,3.5-7.1,7.8-7.1,12.9c0,5.1,2,9.3,5.9,12.6c3.9,3.2,10.9,6.1,20.8,8.7c5.1,1.4,9.4,2.8,12.9,4.3
		c3.5,1.5,6.6,3.2,9.2,5.2c5,3.8,7.4,9.2,7.4,16c0,6.8-2.8,12.2-8.4,16.3c-5.6,4-12.7,6.1-21.4,6.1c-9.2,0-16.8-2-22.7-6.1
		c-3-2.1-5.3-4.8-6.9-8.1c-1.6-3.4-2.4-7.2-2.2-11.5l0.1-0.3h2.8c0,3.9,0.8,7.3,2.3,10.3c1.6,3,3.7,5.3,6.4,7.1
		c5.5,3.6,12.3,5.4,20.4,5.4L352,233C359.7,233,366.1,231.3,371,227.7z"/>
</g>
</svg>
